<svg width="41" height="40" viewBox="0 0 41 40" fill="none" xmlns="http://www.w3.org/2000/svg">
<g clip-path="url(#clip0_27_14)">
<path d="M9.12651 40C8.7429 40 8.41681 39.8671 8.14828 39.6016C7.87976 39.3361 7.74548 39.0134 7.74548 38.6341V1.58389C7.74548 1.16653 7.86057 0.825055 8.09074 0.559463C8.35927 0.293869 8.70452 0.161072 9.12651 0.161072H23.167C34.4454 0.161072 40.1997 5.32115 40.4298 15.6413C40.5067 17.842 40.5449 19.3217 40.5449 20.0805C40.5449 20.8014 40.5067 22.2622 40.4298 24.4628C40.2765 29.7748 38.8379 33.7017 36.1141 36.2438C33.3903 38.7479 29.1707 40 23.4547 40H9.12651ZM23.167 33.455C26.3894 33.455 28.7104 32.753 30.1297 31.3493C31.549 29.9074 32.297 27.5552 32.3738 24.2921C32.4507 22.0156 32.4889 20.5928 32.4889 20.0236C32.4889 19.4166 32.4507 18.0127 32.3738 15.8121C32.297 12.7009 31.4914 10.4054 29.957 8.92564C28.4609 7.44591 26.1017 6.70604 22.8793 6.70604H15.7439V33.455H23.167Z" fill="white"/>
<path d="M0 16.6443H23.3429V24.4295H0V16.6443Z" fill="white"/>
</g>
<defs>
<clipPath id="clip0_27_14">
<rect width="40.7143" height="40" fill="white"/>
</clipPath>
</defs>
</svg>
